{"title":"Decoding Annie Parker 2013 HDRip XviD titler","uid":10084768,"size":949399279,"categoryP":"video","categoryS":"movies","magnet":"?xt=urn:btih:931e33426f50571cacdd579209bf3ce64c9ef8e1&amp;dn=Decoding+Annie+Parker+2013+HDRip+XviD+titler&amp;tr=udp%3A%2F%2Ftracker.openbittorrent.com%3A80&amp;tr=udp%3A%2F%2Fopen.demonii.com%3A1337&amp;tr=udp%3A%2F%2Ftracker.coppersurfer.tk%3A6969&amp;tr=udp%3A%2F%2Fexodus.desync.com%3A6969","seeders":1,"leechers":0,"uploader":"movieZ.freak","files":4,"time":1399077653,"description":"SOURCE: Decoding Annie Parker 2013 720p WEB-DL H264 - PHD\n\n\n &lt;a href=&quot;\nhttp://www.imdb.com/title/tt1464191/&quot; rel=&quot;nofollow&quot; target=&quot;_NEW&quot;&gt;\nhttp://www.imdb.com/title/tt1464191/&lt;/a&gt;\n\n\n &lt;a href=&quot;\nhttp://www.rottentomatoes.com/m/decoding_annie_parker/&quot; rel=&quot;nofollow&quot; target=&quot;_NEW&quot;&gt;\nhttp://www.rottentomatoes.com/m/decoding_annie_parker/&lt;/a&gt;\n\n\n &lt;a href=&quot;\nhttp://en.wikipedia.org/wiki/Decoding_Annie_Parker&quot; rel=&quot;nofollow&quot; target=&quot;_NEW&quot;&gt;\nhttp://en.wikipedia.org/wiki/Decoding_Annie_Parker&lt;/a&gt;\n\n\n\n- SAMPLE: Yes\n\n\n- SUBTITLE: English\n\n\n- LANGUAGE / AUDIO: English\n\n\n\nSCREENSHOTS:\n-------------------    &lt;a href=&quot;\nhttp://someimage.com/5zoL&quot; rel=&quot;nofollow&quot; target=&quot;_NEW&quot;&gt;\nhttp://someimage.com/5zoL&lt;/a&gt;\n\n\n\nDIRECTOR: Steven Bernstein\n\n\n\nCAST: Samantha Morton, Helen Hunt, Aaron Paul, Maggie Grace, Ben McKenzie, Bob Gunton, Bradley Whitford, Richard Schiff, Rashida Jones,...\n\n\n\nPLOT:\n-----------\nBased on true events, Decoding Annie Parker tells the life affirming story of two remarkable women; the irrepressible Annie Parker, a three time cancer survivor and the geneticist Mary-Claire King whose discovery of the breast cancer BRCA gene mutation is considered one of the most important discoveries of the 20th century.\n\n\n************************************\n\n- Duration: 1h 39mn\n\n- Bit rate: 1116 Kbps\n\n- Res: 720 x 296\n\n- AR: 2.40:1\n\n- FPS: 23.976\n\n- Audio: AC3, 2 channels, 128Kbps\n\n************************************\n\n\nGeneral\n-------------\nFormat : AVI\nFormat/Info : Audio Video Interleave\nFile size : 894 MiB\nDuration : 1h 39mn\nOverall bit rate : 1254 Kbps\nWriting library : VirtualDub build 35491\n\n\nVideo\n--------\nFormat : MPEG-4 Visual\nFormat profile : Advanced Simple@L5\nFormat settings, BVOP : 2\nFormat settings, QPel : No\nFormat settings, GMC : No warppoints\nFormat settings, Matrix : Default (H.263)\nCodec ID : XVID\nCodec ID/Hint : XviD\nDuration : 1h 39mn\nBit rate : 1116 Kbps\nWidth : 720 pixels\nHeight : 296 pixels\nDisplay aspect ratio : 2.40:1\nFrame rate : 23.976 fps\nColor space : YUV\nChroma subsampling : 4:2:0\nBit depth : 8 bits\nScan type : Progressive\nCompression mode : Lossy\nBits/(Pixel*Frame) : 0.218\nStream size : 796 MiB (89%)\nWriting library : XviD 65\n\n\nAudio\n-----------\nFormat : AC-3\nFormat/Info : Audio Coding 3\nMode extension : CM (complete main)\nFormat settings, Endianness : Big\nCodec ID : 2000\nDuration : 1h 39mn\nBit rate mode : Constant\nBit rate : 128 Kbps\nChannel(s) : 2 channels\nChannel positions : Front: L R\nSampling rate : 48.0 KHz\nBit depth : 16 bits\nCompression mode : Lossy\nStream size : 91.2 MiB (10%)\nAlignment : Aligned on interleaves\nInterleave, duration : 42 ms (1.00 video frame)\nInterleave, preload duration : 512 ms","torrent":{"xt":"urn:btih:931e33426f50571cacdd579209bf3ce64c9ef8e1","amp;dn":"Decoding+Annie+Parker+2013+HDRip+XviD+titler","amp;tr":["udp%3A%2F%2Ftracker.openbittorrent.com%3A80","udp%3A%2F%2Fopen.demonii.com%3A1337","udp%3A%2F%2Ftracker.coppersurfer.tk%3A6969","udp%3A%2F%2Fexodus.desync.com%3A6969"],"infoHash":"931e33426f50571cacdd579209bf3ce64c9ef8e1","infoHashBuffer":{"type":"Buffer","data":[147,30,51,66,111,80,87,28,172,221,87,146,9,191,60,230,76,158,248,225]},"announce":[],"urlList":[]}}